<?xml version="1.0" encoding="UTF-8" standalone="no"?>
<!-- Created with Inkscape (http://www.inkscape.org/) -->

<svg
   xmlns:dc="http://purl.org/dc/elements/1.1/"
   xmlns:cc="http://creativecommons.org/ns#"
   xmlns:rdf="http://www.w3.org/1999/02/22-rdf-syntax-ns#"
   xmlns:svg="http://www.w3.org/2000/svg"
   xmlns="http://www.w3.org/2000/svg"
   xmlns:sodipodi="http://sodipodi.sourceforge.net/DTD/sodipodi-0.dtd"
   xmlns:inkscape="http://www.inkscape.org/namespaces/inkscape"
   width="210mm"
   height="297mm"
   viewBox="0 0 210 297"
   version="1.1"
   id="svg8"
   inkscape:version="0.92.0 r15299"
   sodipodi:docname="logo.svg">
  <title
     id="title3776">titulo</title>
  <defs
     id="defs2">
    <inkscape:perspective
       sodipodi:type="inkscape:persp3d"
       inkscape:vp_x="-54.983255 : 552.09371 : 1"
       inkscape:vp_y="0 : 3779.5275 : 0"
       inkscape:vp_z="738.71755 : 552.09371 : 1"
       inkscape:persp3d-origin="341.86714 : 365.0071 : 1"
       id="perspective3738" />
    <inkscape:perspective
       sodipodi:type="inkscape:persp3d"
       inkscape:vp_x="24.190475 : 264.16072 : 1"
       inkscape:vp_y="0 : 1000 : 0"
       inkscape:vp_z="234.19048 : 264.16072 : 1"
       inkscape:persp3d-origin="129.19048 : 214.66072 : 1"
       id="perspective3708" />
  </defs>
  <sodipodi:namedview
     id="base"
     pagecolor="#ffffff"
     bordercolor="#666666"
     borderopacity="1.0"
     inkscape:pageopacity="0.0"
     inkscape:pageshadow="2"
     inkscape:zoom="1"
     inkscape:cx="212.35039"
     inkscape:cy="928.70931"
     inkscape:document-units="mm"
     inkscape:current-layer="layer1"
     showgrid="false"
     inkscape:measure-start="497.143,680"
     inkscape:measure-end="500,680"
     inkscape:window-width="1366"
     inkscape:window-height="705"
     inkscape:window-x="-8"
     inkscape:window-y="-8"
     inkscape:window-maximized="1" />
  <metadata
     id="metadata5">
    <rdf:RDF>
      <cc:Work
         rdf:about="">
        <dc:format>image/svg+xml</dc:format>
        <dc:type
           rdf:resource="http://purl.org/dc/dcmitype/StillImage" />
        <dc:title>titulo</dc:title>
      </cc:Work>
    </rdf:RDF>
  </metadata>
  <g
     inkscape:label="Capa 1"
     inkscape:groupmode="layer"
     id="layer1">
    <text
       xml:space="preserve"
       style="font-style:normal;font-weight:normal;font-size:6.75008059px;line-height:4.21880007px;font-family:sans-serif;letter-spacing:0px;word-spacing:0px;fill:#000000;fill-opacity:1;stroke:none;stroke-width:0.16875203"
       x="12.780659"
       y="14.067908"
       id="text3682"
       transform="scale(0.54029417,1.8508436)"><tspan
         sodipodi:role="line"
         id="tspan3680"
         x="12.780659"
         y="14.067908"
         style="font-style:normal;font-variant:normal;font-weight:normal;font-stretch:normal;font-family:Gabriola;-inkscape-font-specification:Gabriola;fill:#a02c2c;stroke-width:0.16875203">tefajarita</tspan></text>
    <g
       sodipodi:type="inkscape:box3d"
       id="g3724"
       style="fill:#ffb380"
       inkscape:perspectiveID="#perspective3738"
       inkscape:corner0="-0.0078739928 : 0.027419294 : 0 : 1"
       inkscape:corner7="-0.028687825 : 0.015400008 : 0.25 : 1">
      <path
         sodipodi:type="inkscape:box3dside"
         id="path3726"
         style="fill:#353564;fill-rule:evenodd;stroke:none;stroke-linejoin:round"
         inkscape:box3dsidetype="6"
         d="m 345.01674,-170.97673 v 45.78776 l 79.23931,-26.14564 v -36.57216 z"
         points="345.01674,-125.18897 424.25605,-151.33461 424.25605,-187.90677 345.01674,-170.97673 " />
      <path
         sodipodi:type="inkscape:box3dside"
         id="path3734"
         style="fill:#afafde;fill-rule:evenodd;stroke:none;stroke-linejoin:round"
         inkscape:box3dsidetype="13"
         d="m 345.01674,-125.18897 8.57143,2.78367 78.83517,-27.16103 -8.16729,-1.76828 z"
         points="353.58817,-122.4053 432.42334,-149.56633 424.25605,-151.33461 345.01674,-125.18897 " />
      <path
         sodipodi:type="inkscape:box3dside"
         id="path3736"
         style="fill:#e9e9ff;fill-rule:evenodd;stroke:none;stroke-linejoin:round"
         inkscape:box3dsidetype="11"
         d="m 424.25605,-187.90677 8.16729,1.14502 v 37.19542 l -8.16729,-1.76828 z"
         points="432.42334,-186.76175 432.42334,-149.56633 424.25605,-151.33461 424.25605,-187.90677 " />
      <path
         sodipodi:type="inkscape:box3dside"
         id="path3728"
         style="fill:#4d4d9f;fill-rule:evenodd;stroke:none;stroke-linejoin:round"
         inkscape:box3dsidetype="5"
         d="m 345.01674,-170.97673 8.57143,1.80251 78.83517,-17.58753 -8.16729,-1.14502 z"
         points="353.58817,-169.17422 432.42334,-186.76175 424.25605,-187.90677 345.01674,-170.97673 " />
      <path
         sodipodi:type="inkscape:box3dside"
         id="path3732"
         style="fill:#d7d7ff;fill-rule:evenodd;stroke:none;stroke-linejoin:round"
         inkscape:box3dsidetype="14"
         d="m 353.58817,-169.17422 v 46.76892 l 78.83517,-27.16103 v -37.19542 z"
         points="353.58817,-122.4053 432.42334,-149.56633 432.42334,-186.76175 353.58817,-169.17422 " />
      <path
         sodipodi:type="inkscape:box3dside"
         id="path3730"
         style="fill:#8686bf;fill-rule:evenodd;stroke:none;stroke-linejoin:round"
         inkscape:box3dsidetype="3"
         d="m 345.01674,-170.97673 8.57143,1.80251 v 46.76892 l -8.57143,-2.78367 z"
         points="353.58817,-169.17422 353.58817,-122.4053 345.01674,-125.18897 345.01674,-170.97673 " />
    </g>
    <rect
       style="fill:#803300;stroke-width:0.06828479"
       id="rect3768"
       width="19.595238"
       height="20"
       x="17.329664"
       y="12.491951" />
    <rect
       style="fill:#f2f2f2;stroke-width:0.06828479"
       id="rect3770"
       width="10.391414"
       height="6.1538467"
       x="20.447088"
       y="16.594509" />
    <rect
       style="fill:#f2f2f2;stroke-width:0.06828479"
       id="rect3772"
       width="6.383297"
       height="3.8461537"
       x="21.265738"
       y="26.349041" />
    <rect
       style="fill:#f2f2f2;stroke-width:0.06828479"
       id="rect3774"
       width="4.1565652"
       height="4.6153841"
       x="31.83312"
       y="25.004772" />
    <path
       style="fill:none;stroke:#000000;stroke-width:0.06828479px;stroke-linecap:butt;stroke-linejoin:miter;stroke-opacity:1"
       d="m 27.649033,30.195193 -0.834829,-0.0366 0.03406,-3.823221 -0.885384,0.05882 -0.06811,3.705584 -0.851329,0.05882 0.03405,-3.823221 -1.157807,0.05882 -0.03405,3.764402 h -1.055647 l 0.03405,-3.823221 -1.598303,0.01366 v 3.846155 l 0.815081,0.02222 v -3.940858 l 5.568216,0.07248 v 0 l -0.05161,1.574442 -6.367938,-0.176456 0.03625,2.448169 z"
       id="path3786"
       inkscape:connector-curvature="0" />
    <path
       style="fill:none;stroke:#000000;stroke-width:0.06828479px;stroke-linecap:butt;stroke-linejoin:miter;stroke-opacity:1"
       d="m 27.597426,27.92348 c -0.0454,0.352913 -0.07318,0.713997 -0.136212,1.058738 -0.02492,0.136298 -0.06658,0.02809 -0.102159,0.05882 -0.01436,0.0124 -0.01883,0.05005 -0.03405,0.05882 -0.02154,0.0124 -0.0454,0 -0.06811,0 -0.06811,0 -0.136212,0 -0.204318,0 -0.204318,0 -0.408639,0 -0.612957,0 -0.329181,0 -0.658361,0 -0.987541,0 -0.10216,0 -0.204319,0 -0.306478,0 -0.02852,0 -0.14437,0.01119 -0.170267,0 -0.02462,-0.01063 -0.04403,-0.04496 -0.06811,-0.05882 -0.02078,-0.01196 -0.178019,0 -0.204319,0 -0.136212,0 -0.272424,0 -0.408639,0 -0.102159,0 -0.204318,0 -0.306477,0 -0.0454,0 -0.09169,-0.01538 -0.136213,0 -0.0352,0.01216 -0.06675,0.04863 -0.102159,0.05882 -0.03359,0.0097 -0.06811,0 -0.102159,0 -0.102159,0 -0.204319,0 -0.30648,0 -0.261074,0 -0.522148,0 -0.783222,0 -0.317828,0 -0.635658,0 -0.953488,0 -0.09081,0 -0.181616,0 -0.272425,0 -0.03405,0 -0.06811,0 -0.102159,0 -0.01135,0 -0.0347,-0.01957 -0.03405,0 0.01214,0.366751 0.04687,0.730225 0.0703,1.095337"
       id="path3788"
       inkscape:connector-curvature="0" />
    <path
       style="fill:none;stroke:#000000;stroke-width:0.06828479px;stroke-linecap:butt;stroke-linejoin:miter;stroke-opacity:1"
       d="m 21.265736,26.349038 c 0.06737,0.211114 0.126549,0.43068 0.202123,0.633341 0.0061,0.01648 0.02304,-0.0048 0.03405,0 0.03483,0.01504 0.06675,0.04863 0.10216,0.05882 0.03359,0.0097 0.06811,0 0.102159,0 0.09081,0 0.181991,-0.0142 0.272426,0 0.790581,0.195078 -0.192634,-0.02773 0.408637,0.05882 0.159974,0.02303 0.316625,0.09788 0.476745,0.117638 0.07926,0.0098 0.159116,-0.0098 0.238372,0 0.08006,0.0099 0.158312,0.04894 0.238371,0.05882 0.07926,0.0098 0.159149,-0.01053 0.238374,0 0.06884,0.0091 0.135511,0.04891 0.204318,0.05882 0.06787,0.0098 0.136212,0 0.204319,0 0.124862,0 0.249723,0 0.374583,0 0.385937,0 0.771873,0 1.157809,0 0.147562,0 0.295127,0 0.44269,0 0.07946,0 0.158915,0 0.238373,0 0.01135,0 0.0227,0 0.03405,0 0.01135,0 0.0239,0.0088 0.03405,0 0.01436,-0.0124 0.01969,-0.04642 0.03405,-0.05882 0.0214,-0.01848 0.11481,0.01848 0.136213,0 0.01436,-0.0124 0.01883,-0.05005 0.03405,-0.05882 1.57e-4,-8.9e-5 0.102128,5.7e-5 0.102159,0 0.008,-0.01386 -0.008,-0.04496 0,-0.05882 0.0082,-0.01415 0.12802,0.01415 0.136212,0 0.008,-0.01386 -0.008,-0.04496 0,-0.05882 0.008,-0.01386 0.02603,0.01386 0.03405,0 0.008,-0.01386 -0.008,-0.04495 0,-0.05882 0.01703,-0.02941 0.08513,0.02941 0.102162,0 0.008,-0.01386 -0.008,-0.04495 0,-0.05882 0.008,-0.01386 0.0227,0 0.03405,0 0.01135,0 0.0227,0 0.03405,0 0.113509,0 0.227019,0 0.34053,0 0.01135,0 0.0227,0 0.03405,0 0.01135,0 0.03405,-0.01961 0.03405,0 0,0.01961 -0.0454,0 -0.03405,0 0.0227,0 0.0454,0 0.06811,0 0.01135,0 0.02603,-0.01386 0.03405,0 0.008,0.01386 -0.008,0.04496 0,0.05882 0.008,0.01386 0.0239,-0.0088 0.03405,0 0.01436,0.0124 0.0197,0.04642 0.03405,0.05882 0.02031,0.01754 0.05205,-0.02773 0.06811,0 0.008,0.01386 -0.0016,0.03941 0,0.05882 0.02111,0.255288 0.0454,0.509762 0.06811,0.764644"
       id="path3790"
       inkscape:connector-curvature="0" />
    <path
       style="fill:none;stroke:#000000;stroke-width:0.06828479px;stroke-linecap:butt;stroke-linejoin:miter;stroke-opacity:1"
       d="m 31.888123,27.100017 c 2.213456,0 2.213456,0 2.213456,0 l -0.06811,-2.058658 0.03405,2.117477 1.872923,-0.05882 0.04924,-2.095248 -2.024319,0.09541 -2.132245,-0.09541 z"
       id="path3792"
       inkscape:connector-curvature="0" />
  </g>
</svg>
